<svg height="47" width="158.3" xml:space="preserve" data-sanitized-enable-background="new 0 0 158.3 47" viewBox="0 0 158.3 47" y="0px" x="0px" id="Layer_1" version="1.1" xmlns:xlink="http://www.w3.org/1999/xlink" xmlns="http://www.w3.org/2000/svg"><a data-encoded-tag-name="script" data-encoded-tag-value="" data-encoded-attr-xmlns=""></a><a data-encoded-tag-name="script" data-encoded-tag-value="d2luZG93Ll93b3JkdHVuZV9leHRlbnNpb25faW5zdGFsbGVkJTIwJTNEJTIwdHJ1ZSUzQg==" data-encoded-attr-xmlns=""></a>
<polygon points="24.6,10.1 24.6,31.4 20,31.4 20,17.9 13.8,26.5 7.5,17.9 7.5,31.4 2.9,31.4 2.9,10.1 7.5,10.1 13.8,18.7 20,10.1"></polygon>
<rect height="21.3" width="4.6" y="10.1" x="67"></rect>
<polygon points="104.1,10.1 98.2,31.4 92.4,31.4 89.2,18.5 86,31.4 80.1,31.4 74.2,10.1 79.1,10.1 82.9,25.2 86.5,10.1 91.6,10.1   95.3,25.2 99,10.1"></polygon>
<path d="M115.8,27.8h-8l-1.2,3.6h-5l7.3-21.3h5.6l7.3,21.3H117L115.8,27.8z M114.4,23.5l-2.6-7.9l-2.6,7.9H114.4z"></path>
<polygon points="134.8,27.1 134.8,31.4 124,31.4 124,10.1 128.5,10.1 128.5,27.1"></polygon>
<path d="M150.6,27.8h-8l-1.2,3.6h-4.9l7.3-21.3h5.6l7.3,21.3h-4.9L150.6,27.8z M149.2,23.5l-2.6-7.9l-2.6,7.9H149.2z"></path>
<path d="M8.3,44.3C8.3,44.3,8.3,44.3,8.3,44.3C8.3,44.3,8.2,44.3,8.3,44.3l-0.2,0.1H7.6H7.4H7.4c0,0,0-0.1,0-0.1v-3.3H3.9v3.3  c0,0,0,0.1,0,0.1H3.9H3.7H3.2H3.1H3c0,0,0-0.1,0-0.1v-7.2C3,37,3,37,3,37c0,0,0.1-0.1,0.1-0.1h0.1h0.5h0.1c0,0,0.1,0,0.1,0.1v0.1v3  h3.4v-3V37c0,0,0-0.1,0.1-0.1h0.1h0.5h0.1c0,0,0.1,0,0.1,0.1v0.1V44.3z"></path>
<path d="M19.7,40.6c0,0.6-0.1,1.1-0.2,1.6c-0.1,0.5-0.3,0.9-0.6,1.2c-0.3,0.3-0.7,0.6-1.1,0.8c-0.5,0.2-1,0.3-1.5,0.3  c-0.5,0-1-0.1-1.5-0.2c-0.4-0.2-0.7-0.4-1-0.7c-0.3-0.4-0.5-0.8-0.6-1.2C13,41.7,13,41.2,13,40.7c0-0.5,0.1-1.1,0.2-1.6  c0.1-0.5,0.3-0.9,0.6-1.2c0.3-0.3,0.7-0.6,1.1-0.8c0.5-0.2,1-0.3,1.5-0.3c0.5,0,1,0.1,1.4,0.2c0.4,0.2,0.7,0.4,1,0.7  c0.3,0.4,0.5,0.8,0.6,1.2C19.6,39.5,19.7,40,19.7,40.6 M18.6,40.6c0-0.4,0-0.8-0.1-1.2c-0.1-0.3-0.2-0.7-0.4-0.9  c-0.2-0.3-0.4-0.5-0.7-0.6c-0.7-0.3-1.5-0.3-2.2,0c-0.3,0.2-0.5,0.4-0.7,0.6c-0.2,0.3-0.3,0.6-0.4,0.9C14,39.7,14,40.1,14,40.5  c0,0.4,0,0.8,0.1,1.2c0.1,0.3,0.2,0.7,0.4,1c0.2,0.3,0.4,0.5,0.7,0.6c0.7,0.3,1.5,0.3,2.2,0c0.3-0.2,0.5-0.4,0.7-0.7  c0.2-0.3,0.3-0.6,0.4-0.9C18.6,41.4,18.6,41,18.6,40.6L18.6,40.6z"></path>
<path d="M30,41.6c0,0.4-0.1,0.8-0.2,1.2c-0.1,0.3-0.3,0.6-0.6,0.9c-0.3,0.2-0.6,0.4-0.9,0.6c-0.4,0.1-0.8,0.2-1.2,0.2  c-0.4,0-0.8-0.1-1.1-0.2c-0.3-0.1-0.6-0.3-0.9-0.5c-0.3-0.2-0.4-0.5-0.6-0.9c-0.1-0.4-0.2-0.8-0.2-1.2v-4.7V37c0,0,0-0.1,0.1-0.1  h0.1H25h0.1c0,0,0.1,0,0.1,0V37v4.5c0,0.3,0,0.6,0.1,0.9c0.1,0.2,0.2,0.5,0.4,0.6c0.2,0.2,0.4,0.3,0.6,0.4c0.5,0.2,1,0.2,1.5,0  c0.2-0.1,0.4-0.2,0.6-0.4c0.2-0.2,0.3-0.4,0.3-0.6c0.1-0.3,0.1-0.6,0.1-0.9v-4.6c0,0,0-0.1,0-0.1c0,0,0.1-0.1,0.1-0.1h0.1h0.5h0.1  c0,0,0.1,0,0.1,0.1c0,0,0,0.1,0,0.1L30,41.6z"></path>
<path d="M39,42.3c0,0.3-0.1,0.6-0.2,0.9c-0.1,0.3-0.3,0.5-0.5,0.7c-0.2,0.2-0.5,0.3-0.8,0.4c-0.3,0.1-0.7,0.2-1,0.2  c-0.2,0-0.5,0-0.7,0c-0.2,0-0.4-0.1-0.6-0.2c-0.1-0.1-0.3-0.1-0.4-0.2c-0.1,0-0.2-0.1-0.2-0.2c0,0-0.1-0.1-0.1-0.2  c0-0.1,0-0.2,0-0.3c0-0.1,0-0.1,0-0.2c0,0,0-0.1,0-0.1l0.1-0.1h0.1c0.1,0,0.2,0,0.2,0.1l0.4,0.2l0.6,0.2c0.2,0.1,0.5,0.1,0.8,0.1  c0.2,0,0.4,0,0.6-0.1c0.2-0.1,0.3-0.1,0.5-0.3c0.1-0.1,0.2-0.2,0.3-0.4c0.1-0.2,0.1-0.4,0.1-0.5c0-0.2,0-0.4-0.1-0.5  c-0.1-0.2-0.2-0.3-0.4-0.4c-0.2-0.1-0.4-0.2-0.5-0.3l-0.6-0.3c-0.2-0.1-0.4-0.2-0.6-0.3c-0.2-0.1-0.4-0.3-0.5-0.4  c-0.2-0.2-0.3-0.4-0.4-0.6c-0.1-0.3-0.1-0.5-0.1-0.8c0-0.3,0-0.6,0.2-0.8c0.1-0.2,0.3-0.4,0.5-0.6c0.2-0.2,0.5-0.3,0.7-0.4  c0.3-0.1,0.6-0.1,0.9-0.1c0.2,0,0.3,0,0.5,0c0.2,0,0.3,0.1,0.5,0.1c0.1,0,0.3,0.1,0.4,0.2c0.1,0,0.2,0.1,0.2,0.1c0,0,0,0,0.1,0.1  v0.1v0.1v0.2V38v0.1c0,0,0,0.1,0,0.1c0,0-0.1,0-0.1,0c-0.1,0-0.1,0-0.2-0.1C38.2,38,38,38,37.9,37.9l-0.5-0.2  c-0.2-0.1-0.4-0.1-0.6-0.1c-0.2,0-0.4,0-0.5,0.1c-0.1,0.1-0.3,0.1-0.4,0.2c-0.1,0.1-0.2,0.2-0.2,0.3c0,0.1-0.1,0.3-0.1,0.4  c0,0.2,0,0.4,0.1,0.5c0.1,0.2,0.2,0.3,0.4,0.4c0.2,0.1,0.4,0.2,0.5,0.3l0.6,0.3l0.6,0.3c0.2,0.1,0.4,0.3,0.5,0.4  c0.2,0.2,0.3,0.4,0.4,0.6C39,41.8,39,42,39,42.3"></path>
<path d="M47.7,44v0.2c0,0,0,0.1,0,0.1c0,0,0,0.1-0.1,0.1h-0.1H44c-0.1,0-0.2,0-0.2-0.1c-0.1-0.1-0.1-0.2-0.1-0.3v-6.7  c0-0.1,0-0.2,0.1-0.3c0.1,0,0.2,0,0.2,0h3.6h0.1l0.1,0.1v0.1c0,0.1,0,0.1,0,0.2c0,0.1,0,0.1,0,0.2c0,0,0,0.1,0,0.1l-0.1,0.1h-3v2.4  h2.5h0.1c0,0,0.1,0,0.1,0.1c0,0,0,0.1,0,0.1v0.4c0,0,0,0.1,0,0.1h-0.1h-0.1h-2.5v2.7h3c0,0,0.1,0,0.1,0l0.1,0.1c0,0,0,0.1,0,0.1V44z"></path>
<path d="M64.5,40.6c0,0.6-0.1,1.1-0.2,1.6c-0.1,0.5-0.3,0.9-0.6,1.2c-0.3,0.3-0.7,0.6-1.1,0.8c-0.5,0.2-1,0.3-1.5,0.3  c-0.5,0-1-0.1-1.5-0.2c-0.4-0.2-0.7-0.4-1-0.7c-0.3-0.4-0.5-0.8-0.6-1.2c-0.1-0.5-0.2-1.1-0.2-1.6c0-0.5,0.1-1.1,0.2-1.6  c0.1-0.5,0.3-0.9,0.6-1.2c0.3-0.3,0.7-0.6,1.1-0.8c0.5-0.2,1-0.3,1.5-0.3c0.5,0,1,0.1,1.4,0.2c0.4,0.1,0.7,0.4,1,0.7  c0.3,0.4,0.5,0.8,0.6,1.2C64.4,39.5,64.5,40,64.5,40.6 M63.4,40.6c0-0.4,0-0.8-0.1-1.2c-0.1-0.3-0.2-0.7-0.4-0.9  c-0.2-0.3-0.4-0.5-0.7-0.6c-0.3-0.2-0.7-0.3-1.1-0.2c-0.4,0-0.8,0.1-1.1,0.2c-0.3,0.2-0.5,0.4-0.7,0.6c-0.2,0.3-0.3,0.6-0.4,0.9  c-0.1,0.4-0.1,0.8-0.1,1.1c0,0.4,0,0.8,0.1,1.2c0.1,0.3,0.2,0.7,0.4,1c0.2,0.3,0.4,0.5,0.7,0.6c0.3,0.2,0.7,0.2,1.1,0.2  c0.4,0,0.8-0.1,1.1-0.3c0.3-0.2,0.5-0.4,0.7-0.7c0.2-0.3,0.3-0.6,0.4-0.9C63.4,41.3,63.4,41,63.4,40.6L63.4,40.6z"></path>
<path d="M73.1,37.3c0,0.1,0,0.1,0,0.2v0.1c0,0,0,0.1-0.1,0.1h-0.1h-2.8v2.5h2.6h0.1h0.1v0.1v0.2v0.2c0,0,0,0.1,0,0.1l-0.1,0.1h-0.1  h-2.6v3.1c0,0,0,0.1,0,0.1c0,0-0.1,0-0.1,0h-0.1h-0.5h-0.2c0,0,0,0-0.1,0c0,0,0-0.1,0-0.1v-6.8c0-0.1,0-0.2,0.1-0.3  c0.1-0.1,0.2-0.1,0.3-0.1h3.4H73c0,0,0.1,0,0.1,0.1c0,0,0,0.1,0,0.1C73.1,37.2,73.1,37.3,73.1,37.3"></path>
<path d="M88,39.1c0,0.3-0.1,0.7-0.2,1c-0.1,0.3-0.3,0.6-0.5,0.8c-0.2,0.2-0.5,0.4-0.8,0.5c-0.4,0.1-0.8,0.2-1.2,0.2h-0.8v2.7  c0,0,0,0.1,0,0.1h-0.1h-0.1h-0.5h-0.2c0,0,0,0-0.1,0c0,0,0-0.1,0-0.1v-6.9c0-0.1,0-0.2,0.1-0.3c0.1,0,0.2-0.1,0.3,0h1.6h0.5  c0.2,0,0.4,0,0.5,0.1c0.2,0,0.4,0.1,0.6,0.2c0.2,0.1,0.4,0.3,0.5,0.5c0.1,0.2,0.3,0.4,0.3,0.6C88,38.6,88,38.9,88,39.1 M87,39.2  c0-0.3,0-0.5-0.2-0.8c-0.1-0.2-0.2-0.3-0.4-0.5c-0.2-0.1-0.3-0.2-0.5-0.2h-0.5h-0.9v2.9h0.9c0.3,0,0.5,0,0.7-0.1  c0.2-0.1,0.4-0.2,0.5-0.3c0.1-0.1,0.2-0.3,0.3-0.5C86.9,39.6,87,39.4,87,39.2z"></path>
<path d="M96.8,44c0,0.1,0,0.1,0,0.2c0,0,0,0.1,0,0.1c0,0,0,0.1-0.1,0.1h-0.1h-3.6c-0.1,0-0.2,0-0.3-0.1c-0.1-0.1-0.1-0.2-0.1-0.3  v-6.7c0-0.1,0-0.2,0.1-0.3c0.1-0.1,0.2-0.1,0.3-0.1h3.6h0.1c0,0,0,0,0,0.1c0,0,0,0.1,0,0.1c0,0.1,0,0.1,0,0.2c0,0.1,0,0.1,0,0.2  c0,0,0,0.1,0,0.1c0,0,0,0,0,0.1h-3v2.4h2.5h0.1c0,0,0.1,0,0.1,0.1c0,0,0,0.1,0,0.1c0,0.1,0,0.1,0,0.2c0,0.1,0,0.1,0,0.2  c0,0,0,0.1,0,0.1c0,0,0,0-0.1,0h-0.1h-2.5v2.7h3c0,0,0.1,0,0.1,0l0.1,0.1c0,0,0,0.1,0,0.1C96.8,43.7,96.8,43.9,96.8,44"></path>
<path d="M106.5,44.3C106.5,44.3,106.5,44.3,106.5,44.3L106.5,44.3l-0.2,0.1h-0.5h-0.1c0,0-0.1,0-0.1-0.1c0,0-0.1-0.1-0.1-0.1  l-0.7-1.8c-0.1-0.2-0.2-0.4-0.2-0.5c-0.1-0.2-0.2-0.3-0.3-0.4c-0.1-0.1-0.3-0.2-0.4-0.3c-0.2-0.1-0.4-0.1-0.6-0.1h-0.6v3.2  c0,0,0,0.1,0,0.1h-0.1h-0.1h-0.5h-0.1h-0.1c0,0,0-0.1,0-0.1v-6.9c0-0.1,0-0.2,0.1-0.3c0.1-0.1,0.2-0.1,0.3-0.1h2.1h0.3  c0.3,0,0.5,0.1,0.8,0.2c0.2,0.1,0.4,0.2,0.6,0.4c0.1,0.2,0.3,0.4,0.3,0.6c0.1,0.2,0.1,0.5,0.1,0.7c0,0.2,0,0.5-0.1,0.7  c-0.1,0.2-0.2,0.4-0.3,0.5c-0.1,0.2-0.3,0.3-0.4,0.4c-0.2,0.1-0.4,0.2-0.6,0.3c0.1,0.1,0.2,0.1,0.3,0.2c0.1,0.1,0.2,0.2,0.3,0.3  c0.1,0.1,0.2,0.3,0.2,0.4l0.2,0.5l0.7,1.6c0,0.1,0.1,0.2,0.1,0.3C106.6,44.1,106.5,44.2,106.5,44.3 M105,39c0-0.3-0.1-0.5-0.2-0.7  c-0.2-0.2-0.4-0.4-0.7-0.4h-0.3h-1.2v2.5h1c0.2,0,0.5,0,0.7-0.1c0.2-0.1,0.3-0.1,0.5-0.3c0.1-0.1,0.2-0.2,0.3-0.4  C105.1,39.4,105.1,39.2,105,39z"></path>
<path d="M115,37.3v0.2v0.1c0,0,0,0.1-0.1,0.1h-0.1h-2.7v2.5h2.6h0.1c0,0,0,0,0.1,0c0,0,0,0.1,0,0.1v0.2v0.2c0,0,0,0.1,0,0.1  c0,0,0,0.1-0.1,0.1h-0.1h-2.6v3.1c0,0,0,0.1,0,0.1c0,0-0.1,0-0.1,0h-0.1h-0.6h-0.2c0,0-0.1,0-0.1,0c0,0,0-0.1,0-0.1v-6.8  c0-0.1,0-0.2,0.1-0.3c0.1-0.1,0.2-0.1,0.3-0.1h3.4h0.1c0,0,0.1,0,0.1,0.1c0,0,0,0.1,0,0.1C114.9,37.1,115,37.3,115,37.3"></path>
<path d="M125.2,41.6c0,0.4-0.1,0.8-0.2,1.2c-0.1,0.3-0.3,0.6-0.6,0.9c-0.3,0.2-0.6,0.4-0.9,0.6c-0.4,0.1-0.8,0.2-1.2,0.2  c-0.4,0-0.8-0.1-1.1-0.2c-0.7-0.2-1.2-0.7-1.4-1.4c-0.1-0.4-0.2-0.8-0.2-1.2v-4.7c0,0,0-0.1,0-0.1c0,0,0.1-0.1,0.1-0.1h0.1h0.5h0.2  c0,0,0.1,0,0.1,0.1c0,0,0,0.1,0,0.1v4.5c0,0.3,0,0.6,0.1,0.9c0.1,0.2,0.2,0.5,0.4,0.6c0.2,0.2,0.4,0.3,0.6,0.4  c0.2,0.1,0.5,0.1,0.8,0.1c0.3,0,0.5,0,0.8-0.1c0.2-0.1,0.4-0.2,0.6-0.4c0.2-0.2,0.3-0.4,0.4-0.6c0.1-0.3,0.1-0.6,0.1-0.9v-4.6  c0,0,0-0.1,0-0.1c0,0,0-0.1,0.1-0.1h0.2h0.6h0.1c0,0,0.1,0,0.1,0.1v0.1L125.2,41.6z"></path>
<path d="M138.4,44.3C138.4,44.3,138.4,44.3,138.4,44.3L138.4,44.3l-0.2,0.1h-0.5h-0.2c0,0-0.1,0-0.1,0c0,0,0-0.1,0-0.1v-6.5  l-2.6,6.6c0,0,0,0.1,0,0.1h-0.1h-0.1h-0.4H134H134l-2.5-6.6v6.5c0,0,0,0.1,0,0.1c0,0-0.1,0-0.1,0h-0.2h-0.5h-0.1c0,0,0,0-0.1,0  c0,0,0-0.1,0-0.1v-7c0-0.1,0-0.3,0.1-0.3c0.1-0.1,0.2-0.1,0.3-0.1h0.6c0.1,0,0.2,0,0.3,0c0.1,0,0.2,0.1,0.2,0.1  c0.1,0,0.1,0.1,0.2,0.2c0.1,0.1,0.1,0.2,0.1,0.3l2.1,5.4l2.2-5.4c0-0.1,0.1-0.2,0.1-0.3c0-0.1,0.1-0.1,0.2-0.2  c0.1,0,0.1-0.1,0.2-0.1h0.3h0.6h0.2c0.1,0,0.1,0,0.1,0.1c0,0,0.1,0.1,0.1,0.1c0,0.1,0,0.1,0,0.2L138.4,44.3z"></path>
<path d="M147.7,44v0.2c0,0,0,0.1,0,0.1c0,0,0,0.1-0.1,0.1h-0.1h-3.6c-0.1,0-0.2,0-0.3-0.1c-0.1-0.1-0.1-0.2-0.1-0.3v-6.7  c0-0.1,0-0.2,0.1-0.3c0.1-0.1,0.2-0.1,0.3-0.1h3.5h0.1l0.1,0.1v0.1v0.2v0.2c0,0,0,0.1,0,0.1l-0.1,0.1h-3v2.4h2.5h0.1  c0,0,0,0.1,0,0.1c0,0,0,0.1,0,0.1c0,0.1,0,0.1,0,0.2c0,0.1,0,0.1,0,0.2c0,0,0,0.1,0,0.1H147h-2.5v2.7h2.9c0,0,0.1,0,0.1,0  c0,0,0,0,0.1,0.1c0,0,0,0.1,0,0.1L147.7,44z"></path>
<path d="M156.3,42.3c0,0.3-0.1,0.6-0.2,0.9c-0.1,0.3-0.3,0.5-0.5,0.7c-0.2,0.2-0.5,0.3-0.8,0.4c-0.3,0.1-0.7,0.2-1,0.2  c-0.2,0-0.5,0-0.7,0c-0.2,0-0.4-0.1-0.6-0.2c-0.1-0.1-0.3-0.1-0.4-0.2c-0.1,0-0.2-0.1-0.2-0.2c0,0-0.1-0.1-0.1-0.2  c0-0.1,0-0.2,0-0.3c0-0.1,0-0.1,0-0.2c0,0,0-0.1,0-0.1l0.1-0.1h0.1c0.1,0,0.2,0,0.2,0.1l0.4,0.2l0.6,0.2c0.2,0.1,0.5,0.1,0.8,0.1  c0.2,0,0.4,0,0.6-0.1c0.2-0.1,0.3-0.1,0.5-0.3c0.1-0.1,0.2-0.2,0.3-0.4c0.1-0.2,0.1-0.4,0.1-0.5c0-0.2,0-0.4-0.1-0.5  c-0.1-0.2-0.2-0.3-0.4-0.4c-0.2-0.1-0.4-0.2-0.5-0.3l-0.6-0.3c-0.2-0.1-0.4-0.2-0.6-0.3c-0.2-0.1-0.4-0.3-0.5-0.4  c-0.2-0.2-0.3-0.4-0.4-0.6c-0.1-0.3-0.1-0.5-0.1-0.8c0-0.3,0-0.6,0.2-0.8c0.1-0.2,0.3-0.4,0.5-0.6c0.2-0.2,0.5-0.3,0.7-0.4  c0.3-0.1,0.6-0.1,0.9-0.1c0.2,0,0.3,0,0.5,0c0.3,0,0.6,0.1,0.9,0.3c0.1,0,0.2,0.1,0.2,0.1c0,0,0,0,0,0.1v0.1v0.1v0.2V38v0.1  c0,0,0,0.1,0,0.1c0,0-0.1,0-0.1,0c-0.1,0-0.1,0-0.2-0.1c-0.1-0.1-0.2-0.1-0.3-0.2l-0.5-0.2c-0.2-0.1-0.4-0.1-0.6-0.1  c-0.2,0-0.4,0-0.5,0.1c-0.1,0.1-0.3,0.1-0.4,0.2c-0.1,0.1-0.2,0.2-0.2,0.3c0,0.1-0.1,0.3-0.1,0.4c0,0.2,0,0.4,0.1,0.5  c0.1,0.2,0.2,0.3,0.4,0.4c0.2,0.1,0.4,0.2,0.5,0.3l0.6,0.3l0.6,0.3c0.2,0.1,0.4,0.3,0.5,0.4c0.2,0.2,0.3,0.4,0.4,0.6  C156.2,41.8,156.3,42,156.3,42.3"></path>
<path d="M39.4,9.5c1.5,0,3,0.3,4.4,0.9c2.7,1.2,4.8,3.3,6,6c1.2,2.8,1.2,5.9,0,8.7c-1.2,2.7-3.3,4.8-6,6c-2.8,1.2-5.9,1.2-8.7,0  c-1.3-0.6-2.6-1.4-3.6-2.5c-1-1-1.8-2.2-2.4-3.5c-0.6-1.4-0.9-2.9-0.9-4.4c0-1.5,0.3-3,0.9-4.4c0.6-1.3,1.4-2.6,2.5-3.6  c1-1,2.2-1.8,3.6-2.4C36.4,9.8,37.9,9.5,39.4,9.5 M39.4,27.8c0.9,0,1.8-0.2,2.6-0.6c0.8-0.4,1.5-0.9,2.1-1.5  c0.6-0.7,1.1-1.4,1.4-2.3c0.7-1.7,0.7-3.6,0-5.3c-0.7-1.7-1.9-3-3.6-3.7c-0.8-0.4-1.7-0.6-2.6-0.6c-0.9,0-1.8,0.2-2.6,0.6  c-0.8,0.4-1.5,0.9-2.1,1.5c-0.6,0.7-1.1,1.4-1.4,2.2c-0.7,1.7-0.7,3.6,0,5.3c0.3,0.8,0.8,1.6,1.4,2.3c0.6,0.6,1.3,1.2,2.1,1.5  C37.6,27.6,38.5,27.8,39.4,27.8z"></path>
<rect height="5.1" width="4.3" y="2.7" x="37.2"></rect>
<polygon points="64,10.1 64,14.3 59.9,14.3 59.9,31.4 55.3,31.4 55.3,14.3 51.2,14.3 51.2,10.1"></polygon>
<a data-encoded-tag-name="script" data-encoded-tag-value="" data-encoded-attr-xmlns=""></a></svg>